<svg width="60" height="60" viewBox="0 0 60 60" fill="none" xmlns="http://www.w3.org/2000/svg">
<g clip-path="url(#clip0_201_380)">
<path d="M5.625 5.625C4.51248 5.625 3.42495 5.9549 2.49992 6.57298C1.57489 7.19107 0.853923 8.06957 0.42818 9.09741C0.00243723 10.1252 -0.108957 11.2562 0.108085 12.3474C0.325127 13.4385 0.860856 14.4408 1.64753 15.2275C2.4342 16.0141 3.43648 16.5499 4.52762 16.7669C5.61876 16.984 6.74976 16.8726 7.7776 16.4468C8.80543 16.0211 9.68394 15.3001 10.302 14.3751C10.9201 13.4501 11.25 12.3625 11.25 11.25C11.25 9.75816 10.6574 8.32742 9.60248 7.27252C8.54759 6.21763 7.11685 5.625 5.625 5.625ZM5.625 24.375C4.51248 24.375 3.42495 24.7049 2.49992 25.323C1.57489 25.9411 0.853923 26.8196 0.42818 27.8474C0.00243723 28.8752 -0.108957 30.0062 0.108085 31.0974C0.325127 32.1885 0.860856 33.1908 1.64753 33.9775C2.4342 34.7641 3.43648 35.2999 4.52762 35.5169C5.61876 35.734 6.74976 35.6226 7.7776 35.1968C8.80543 34.7711 9.68394 34.0501 10.302 33.1251C10.9201 32.2001 11.25 31.1125 11.25 30C11.25 28.5082 10.6574 27.0774 9.60248 26.0225C8.54759 24.9676 7.11685 24.375 5.625 24.375ZM5.625 43.125C4.51248 43.125 3.42495 43.4549 2.49992 44.073C1.57489 44.6911 0.853923 45.5696 0.42818 46.5974C0.00243723 47.6252 -0.108957 48.7562 0.108085 49.8474C0.325127 50.9385 0.860856 51.9408 1.64753 52.7275C2.4342 53.5141 3.43648 54.0499 4.52762 54.2669C5.61876 54.484 6.74976 54.3726 7.7776 53.9468C8.80543 53.5211 9.68394 52.8001 10.302 51.8751C10.9201 50.9501 11.25 49.8625 11.25 48.75C11.25 47.2582 10.6574 45.8274 9.60248 44.7725C8.54759 43.7176 7.11685 43.125 5.625 43.125ZM58.125 45H20.625C20.1277 45 19.6508 45.1975 19.2992 45.5492C18.9475 45.9008 18.75 46.3777 18.75 46.875V50.625C18.75 51.1223 18.9475 51.5992 19.2992 51.9508C19.6508 52.3025 20.1277 52.5 20.625 52.5H58.125C58.6223 52.5 59.0992 52.3025 59.4508 51.9508C59.8025 51.5992 60 51.1223 60 50.625V46.875C60 46.3777 59.8025 45.9008 59.4508 45.5492C59.0992 45.1975 58.6223 45 58.125 45ZM58.125 7.5H20.625C20.1277 7.5 19.6508 7.69754 19.2992 8.04918C18.9475 8.40081 18.75 8.87772 18.75 9.375V13.125C18.75 13.6223 18.9475 14.0992 19.2992 14.4508C19.6508 14.8025 20.1277 15 20.625 15H58.125C58.6223 15 59.0992 14.8025 59.4508 14.4508C59.8025 14.0992 60 13.6223 60 13.125V9.375C60 8.87772 59.8025 8.40081 59.4508 8.04918C59.0992 7.69754 58.6223 7.5 58.125 7.5V7.5ZM58.125 26.25H20.625C20.1277 26.25 19.6508 26.4475 19.2992 26.7992C18.9475 27.1508 18.75 27.6277 18.75 28.125V31.875C18.75 32.3723 18.9475 32.8492 19.2992 33.2008C19.6508 33.5525 20.1277 33.75 20.625 33.75H58.125C58.6223 33.75 59.0992 33.5525 59.4508 33.2008C59.8025 32.8492 60 32.3723 60 31.875V28.125C60 27.6277 59.8025 27.1508 59.4508 26.7992C59.0992 26.4475 58.6223 26.25 58.125 26.25Z" fill="#957D74"/>
</g>
<defs>
<clipPath id="clip0_201_380">
<rect width="60" height="60" fill="white"/>
</clipPath>
</defs>
</svg>
