<svg width="60" height="60" viewBox="0 0 60 60" fill="none" xmlns="http://www.w3.org/2000/svg">
<path d="M39.375 11.25H41.25V18.75H39.375C38.8777 18.75 38.4008 18.9475 38.0492 19.2992C37.6975 19.6508 37.5 20.1277 37.5 20.625V24.375C37.5 24.8723 37.6975 25.3492 38.0492 25.7008C38.4008 26.0525 38.8777 26.25 39.375 26.25H50.625C51.1223 26.25 51.5992 26.0525 51.9508 25.7008C52.3025 25.3492 52.5 24.8723 52.5 24.375V20.625C52.5 20.1277 52.3025 19.6508 51.9508 19.2992C51.5992 18.9475 51.1223 18.75 50.625 18.75H48.75V5.625C48.75 5.12772 48.5525 4.65081 48.2008 4.29917C47.8492 3.94754 47.3723 3.75 46.875 3.75H41.25C40.9024 3.75029 40.5617 3.84722 40.266 4.02994C39.9703 4.21267 39.7312 4.47401 39.5754 4.78477L37.7004 8.53477C37.5572 8.82051 37.4893 9.13813 37.5034 9.45745C37.5175 9.77677 37.6129 10.0872 37.7807 10.3593C37.9485 10.6313 38.183 10.856 38.4621 11.0119C38.7411 11.1678 39.0554 11.2497 39.375 11.25ZM42.4395 30.341C40.9118 30.7594 39.5171 31.5627 38.3886 32.6742C37.2601 33.7856 36.4357 35.168 35.9941 36.6891C34.3242 42.6715 38.4797 48.1465 44.0625 48.7043C43.3264 49.3253 42.5032 49.835 41.6191 50.2172C40.732 50.6156 40.3535 51.6785 40.6605 52.6008L41.8207 54.9445C42.157 55.9559 43.2891 56.5254 44.2699 56.1059C51.0668 53.2043 54.3773 48.8859 54.3773 40.6371V39.375C54.375 33.3738 48.7055 28.6711 42.4418 30.341H42.4395ZM45 41.7188C44.5364 41.7188 44.0833 41.5813 43.6979 41.3238C43.3125 41.0662 43.0121 40.7002 42.8347 40.2719C42.6573 39.8436 42.6109 39.3724 42.7013 38.9178C42.7917 38.4631 43.0149 38.0455 43.3427 37.7177C43.6705 37.3899 44.0881 37.1667 44.5428 37.0763C44.9974 36.9859 45.4687 37.0323 45.8969 37.2097C46.3252 37.3871 46.6912 37.6875 46.9488 38.0729C47.2063 38.4583 47.3438 38.9114 47.3438 39.375C47.3438 39.9966 47.0968 40.5927 46.6573 41.0323C46.2177 41.4718 45.6216 41.7188 45 41.7188ZM24.375 41.25H18.75V5.625C18.75 5.12772 18.5525 4.65081 18.2008 4.29917C17.8492 3.94754 17.3723 3.75 16.875 3.75H13.125C12.6277 3.75 12.1508 3.94754 11.7992 4.29917C11.4475 4.65081 11.25 5.12772 11.25 5.625V41.25H5.625C3.96211 41.25 3.12187 43.2703 4.30195 44.4504L13.677 55.7004C14.0285 56.0518 14.5053 56.2491 15.0023 56.2491C15.4994 56.2491 15.9761 56.0518 16.3277 55.7004L25.7027 44.4504C26.877 43.2727 26.0414 41.25 24.375 41.25Z" fill="#035299"/>
</svg>
