<svg width="60" height="60" viewBox="0 0 60 60" fill="none" xmlns="http://www.w3.org/2000/svg">
<path d="M59.0625 29.945C59.0921 45.9575 46.0336 59.0511 30.0211 59.0624C23.1053 59.0673 16.7528 56.6565 11.7607 52.6275C10.4626 51.5798 10.3656 49.6344 11.5452 48.4548L12.8655 47.1345C13.8744 46.1256 15.485 46.0152 16.6028 46.902C20.2807 49.8205 24.9353 51.5625 30 51.5625C41.9186 51.5625 51.5625 41.9167 51.5625 30C51.5625 18.0814 41.9167 8.4375 30 8.4375C24.2796 8.4375 19.0841 10.6604 15.2264 14.2889L21.1741 20.2366C22.3554 21.4179 21.5188 23.4375 19.8484 23.4375H2.8125C1.77691 23.4375 0.9375 22.5981 0.9375 21.5625V4.5266C0.9375 2.85621 2.95711 2.01961 4.13836 3.20074L9.92414 8.98652C15.1417 4.00031 22.2131 0.9375 30 0.9375C46.0324 0.9375 59.0329 13.9195 59.0625 29.945ZM37.8619 39.1775L39.013 37.6975C39.9667 36.4713 39.7458 34.7043 38.5196 33.7507L33.75 30.0409V17.8125C33.75 16.2592 32.4908 15 30.9375 15H29.0625C27.5092 15 26.25 16.2592 26.25 17.8125V33.7091L33.9151 39.6709C35.1413 40.6245 36.9082 40.4037 37.8619 39.1775Z" fill="#5EACEA"/>
</svg>
