<svg width="60" height="60" viewBox="0 0 60 60" fill="none" xmlns="http://www.w3.org/2000/svg">
<g clip-path="url(#clip0_202_392)">
<path d="M35.625 48.75H28.125C27.6277 48.75 27.1508 48.9475 26.7992 49.2992C26.4476 49.6508 26.25 50.1277 26.25 50.625V54.375C26.25 54.8723 26.4476 55.3492 26.7992 55.7008C27.1508 56.0525 27.6277 56.25 28.125 56.25H35.625C36.1223 56.25 36.5992 56.0525 36.9509 55.7008C37.3025 55.3492 37.5 54.8723 37.5 54.375V50.625C37.5 50.1277 37.3025 49.6508 36.9509 49.2992C36.5992 48.9475 36.1223 48.75 35.625 48.75ZM20.625 41.25H15V5.625C15 5.12772 14.8025 4.65081 14.4509 4.29917C14.0992 3.94754 13.6223 3.75 13.125 3.75H9.37503C8.87775 3.75 8.40084 3.94754 8.0492 4.29917C7.69757 4.65081 7.50003 5.12772 7.50003 5.625V41.25H1.87503C0.212139 41.25 -0.629267 43.2703 0.551983 44.4504L9.92698 55.7004C10.2786 56.0518 10.7553 56.2491 11.2524 56.2491C11.7494 56.2491 12.2262 56.0518 12.5778 55.7004L21.9528 44.4504C23.127 43.2727 22.2914 41.25 20.625 41.25ZM50.625 18.75H28.125C27.6277 18.75 27.1508 18.9475 26.7992 19.2992C26.4476 19.6508 26.25 20.1277 26.25 20.625V24.375C26.25 24.8723 26.4476 25.3492 26.7992 25.7008C27.1508 26.0525 27.6277 26.25 28.125 26.25H50.625C51.1223 26.25 51.5992 26.0525 51.9509 25.7008C52.3025 25.3492 52.5 24.8723 52.5 24.375V20.625C52.5 20.1277 52.3025 19.6508 51.9509 19.2992C51.5992 18.9475 51.1223 18.75 50.625 18.75ZM43.125 33.75H28.125C27.6277 33.75 27.1508 33.9475 26.7992 34.2992C26.4476 34.6508 26.25 35.1277 26.25 35.625V39.375C26.25 39.8723 26.4476 40.3492 26.7992 40.7008C27.1508 41.0525 27.6277 41.25 28.125 41.25H43.125C43.6223 41.25 44.0992 41.0525 44.4509 40.7008C44.8025 40.3492 45 39.8723 45 39.375V35.625C45 35.1277 44.8025 34.6508 44.4509 34.2992C44.0992 33.9475 43.6223 33.75 43.125 33.75ZM58.125 3.75H28.125C27.6277 3.75 27.1508 3.94754 26.7992 4.29917C26.4476 4.65081 26.25 5.12772 26.25 5.625V9.375C26.25 9.87228 26.4476 10.3492 26.7992 10.7008C27.1508 11.0525 27.6277 11.25 28.125 11.25H58.125C58.6223 11.25 59.0992 11.0525 59.4509 10.7008C59.8025 10.3492 60 9.87228 60 9.375V5.625C60 5.12772 59.8025 4.65081 59.4509 4.29917C59.0992 3.94754 58.6223 3.75 58.125 3.75Z" fill="#575757"/>
</g>
<defs>
<clipPath id="clip0_202_392">
<rect width="60" height="60" fill="white"/>
</clipPath>
</defs>
</svg>
