<svg width="60" height="60" viewBox="0 0 60 60" fill="none" xmlns="http://www.w3.org/2000/svg">
<path d="M54.8438 18.75H5.15625C4.38281 18.75 3.75 18.1172 3.75 17.3438V13.125C3.75 10.0195 6.26953 7.5 9.375 7.5H15V1.40625C15 0.632813 15.6328 0 16.4062 0H21.0938C21.8672 0 22.5 0.632813 22.5 1.40625V7.5H37.5V1.40625C37.5 0.632813 38.1328 0 38.9062 0H43.5938C44.3672 0 45 0.632813 45 1.40625V7.5H50.625C53.7305 7.5 56.25 10.0195 56.25 13.125V17.3438C56.25 18.1172 55.6172 18.75 54.8438 18.75ZM5.15625 22.5H54.8438C55.6172 22.5 56.25 23.1328 56.25 23.9062V54.375C56.25 57.4805 53.7305 60 50.625 60H9.375C6.26953 60 3.75 57.4805 3.75 54.375V23.9062C3.75 23.1328 4.38281 22.5 5.15625 22.5ZM42.1875 38.9062C42.1875 38.1328 41.5547 37.5 40.7812 37.5H33.75V30.4688C33.75 29.6953 33.1172 29.0625 32.3438 29.0625H27.6562C26.8828 29.0625 26.25 29.6953 26.25 30.4688V37.5H19.2188C18.4453 37.5 17.8125 38.1328 17.8125 38.9062V43.5938C17.8125 44.3672 18.4453 45 19.2188 45H26.25V52.0312C26.25 52.8047 26.8828 53.4375 27.6562 53.4375H32.3438C33.1172 53.4375 33.75 52.8047 33.75 52.0312V45H40.7812C41.5547 45 42.1875 44.3672 42.1875 43.5938V38.9062Z" fill="#FFC168"/>
</svg>
