<svg width="54" height="60" viewBox="0 0 54 60" fill="none" xmlns="http://www.w3.org/2000/svg">
<path d="M51.8438 18.75H2.15625C1.38281 18.75 0.75 18.1172 0.75 17.3438V13.125C0.75 10.0195 3.26953 7.5 6.375 7.5H12V1.40625C12 0.632812 12.6328 0 13.4062 0H18.0938C18.8672 0 19.5 0.632812 19.5 1.40625V7.5H34.5V1.40625C34.5 0.632812 35.1328 0 35.9062 0H40.5938C41.3672 0 42 0.632812 42 1.40625V7.5H47.625C50.7305 7.5 53.25 10.0195 53.25 13.125V17.3438C53.25 18.1172 52.6172 18.75 51.8438 18.75ZM2.15625 22.5H51.8438C52.6172 22.5 53.25 23.1328 53.25 23.9062V54.375C53.25 57.4805 50.7305 60 47.625 60H6.375C3.26953 60 0.75 57.4805 0.75 54.375V23.9062C0.75 23.1328 1.38281 22.5 2.15625 22.5ZM39.1875 38.9062C39.1875 38.1328 38.5547 37.5 37.7812 37.5H30.75V30.4688C30.75 29.6953 30.1172 29.0625 29.3438 29.0625H24.6562C23.8828 29.0625 23.25 29.6953 23.25 30.4688V37.5H16.2188C15.4453 37.5 14.8125 38.1328 14.8125 38.9062V43.5938C14.8125 44.3672 15.4453 45 16.2188 45H23.25V52.0312C23.25 52.8047 23.8828 53.4375 24.6562 53.4375H29.3438C30.1172 53.4375 30.75 52.8047 30.75 52.0312V45H37.7812C38.5547 45 39.1875 44.3672 39.1875 43.5938V38.9062Z" fill="#A75CB4"/>
</svg>
