<svg width="60" height="60" viewBox="0 0 60 60" fill="none" xmlns="http://www.w3.org/2000/svg">
<path d="M49.6875 0H10.3125C8.75918 0 7.5 1.25918 7.5 2.8125V4.6875C7.5 6.24082 8.75918 7.5 10.3125 7.5C10.3125 18.16 16.2909 27.1563 24.4737 30C16.2909 32.8437 10.3125 41.84 10.3125 52.5C8.75918 52.5 7.5 53.7592 7.5 55.3125V57.1875C7.5 58.7408 8.75918 60 10.3125 60H49.6875C51.2408 60 52.5 58.7408 52.5 57.1875V55.3125C52.5 53.7592 51.2408 52.5 49.6875 52.5C49.6875 41.84 43.7091 32.8437 35.5263 30C43.7091 27.1563 49.6875 18.16 49.6875 7.5C51.2408 7.5 52.5 6.24082 52.5 4.6875V2.8125C52.5 1.25918 51.2408 0 49.6875 0ZM40.8893 45H19.1109C21.11 39.516 25.2159 35.625 30 35.625C34.7837 35.625 38.8901 39.5152 40.8893 45ZM40.8915 15H19.1107C18.2798 12.7205 17.8125 10.1658 17.8125 7.5H42.1875C42.1875 10.1725 41.7203 12.725 40.8915 15Z" fill="#957D74"/>
</svg>
