<svg width="50" height="50" viewBox="0 0 50 50" fill="none" xmlns="http://www.w3.org/2000/svg">
<path d="M47.5 7.5H2.5C1.11953 7.5 0 8.61953 0 10V40C0 41.3805 1.11953 42.5 2.5 42.5H47.5C48.8805 42.5 50 41.3805 50 40V10C50 8.61953 48.8805 7.5 47.5 7.5ZM13.75 30.6156V31.875C13.75 32.2203 13.4703 32.5 13.125 32.5H11.875C11.5297 32.5 11.25 32.2203 11.25 31.875V30.6023C10.368 30.557 9.51016 30.2492 8.79922 29.7156C8.49453 29.4867 8.47891 29.0305 8.75469 28.7672L9.67266 27.8914C9.88906 27.6852 10.2109 27.6758 10.4641 27.8344C10.7664 28.0234 11.1094 28.125 11.4656 28.125H13.6617C14.1695 28.125 14.5836 27.6625 14.5836 27.0945C14.5836 26.6297 14.3016 26.2203 13.8984 26.1L10.3828 25.0453C8.93047 24.6094 7.91563 23.2156 7.91563 21.6555C7.91563 19.7398 9.40391 18.1836 11.2492 18.1344V16.875C11.2492 16.5297 11.5289 16.25 11.8742 16.25H13.1242C13.4695 16.25 13.7492 16.5297 13.7492 16.875V18.1477C14.6313 18.193 15.4891 18.5 16.2 19.0344C16.5047 19.2633 16.5203 19.7195 16.2445 19.9828L15.3266 20.8586C15.1102 21.0648 14.7883 21.0742 14.5352 20.9156C14.2328 20.7258 13.8898 20.625 13.5336 20.625H11.3375C10.8297 20.625 10.4156 21.0875 10.4156 21.6555C10.4156 22.1203 10.6977 22.5297 11.1008 22.65L14.6164 23.7047C16.0688 24.1406 17.0836 25.5344 17.0836 27.0945C17.0836 29.0109 15.5953 30.5664 13.75 30.6156ZM32.5 29.375C32.5 29.7203 32.2203 30 31.875 30H23.125C22.7797 30 22.5 29.7203 22.5 29.375V28.125C22.5 27.7797 22.7797 27.5 23.125 27.5H31.875C32.2203 27.5 32.5 27.7797 32.5 28.125V29.375ZM45 29.375C45 29.7203 44.7203 30 44.375 30H38.125C37.7797 30 37.5 29.7203 37.5 29.375V28.125C37.5 27.7797 37.7797 27.5 38.125 27.5H44.375C44.7203 27.5 45 27.7797 45 28.125V29.375ZM45 21.875C45 22.2203 44.7203 22.5 44.375 22.5H23.125C22.7797 22.5 22.5 22.2203 22.5 21.875V20.625C22.5 20.2797 22.7797 20 23.125 20H44.375C44.7203 20 45 20.2797 45 20.625V21.875Z" fill="white"/>
</svg>
