<svg width="60" height="60" viewBox="0 0 60 60" fill="none" xmlns="http://www.w3.org/2000/svg">
<path d="M46.875 7.5H37.5C37.5 3.36328 34.1367 0 30 0C25.8633 0 22.5 3.36328 22.5 7.5H13.125C10.0195 7.5 7.5 10.0195 7.5 13.125V54.375C7.5 57.4805 10.0195 60 13.125 60H46.875C49.9805 60 52.5 57.4805 52.5 54.375V13.125C52.5 10.0195 49.9805 7.5 46.875 7.5ZM18.75 49.6875C17.1914 49.6875 15.9375 48.4336 15.9375 46.875C15.9375 45.3164 17.1914 44.0625 18.75 44.0625C20.3086 44.0625 21.5625 45.3164 21.5625 46.875C21.5625 48.4336 20.3086 49.6875 18.75 49.6875ZM18.75 38.4375C17.1914 38.4375 15.9375 37.1836 15.9375 35.625C15.9375 34.0664 17.1914 32.8125 18.75 32.8125C20.3086 32.8125 21.5625 34.0664 21.5625 35.625C21.5625 37.1836 20.3086 38.4375 18.75 38.4375ZM18.75 27.1875C17.1914 27.1875 15.9375 25.9336 15.9375 24.375C15.9375 22.8164 17.1914 21.5625 18.75 21.5625C20.3086 21.5625 21.5625 22.8164 21.5625 24.375C21.5625 25.9336 20.3086 27.1875 18.75 27.1875ZM30 4.6875C31.5586 4.6875 32.8125 5.94141 32.8125 7.5C32.8125 9.05859 31.5586 10.3125 30 10.3125C28.4414 10.3125 27.1875 9.05859 27.1875 7.5C27.1875 5.94141 28.4414 4.6875 30 4.6875ZM45 47.8125C45 48.3281 44.5781 48.75 44.0625 48.75H27.1875C26.6719 48.75 26.25 48.3281 26.25 47.8125V45.9375C26.25 45.4219 26.6719 45 27.1875 45H44.0625C44.5781 45 45 45.4219 45 45.9375V47.8125ZM45 36.5625C45 37.0781 44.5781 37.5 44.0625 37.5H27.1875C26.6719 37.5 26.25 37.0781 26.25 36.5625V34.6875C26.25 34.1719 26.6719 33.75 27.1875 33.75H44.0625C44.5781 33.75 45 34.1719 45 34.6875V36.5625ZM45 25.3125C45 25.8281 44.5781 26.25 44.0625 26.25H27.1875C26.6719 26.25 26.25 25.8281 26.25 25.3125V23.4375C26.25 22.9219 26.6719 22.5 27.1875 22.5H44.0625C44.5781 22.5 45 22.9219 45 23.4375V25.3125Z" fill="#838383"/>
</svg>
