<svg width="46" height="60" viewBox="0 0 46 60" fill="none" xmlns="http://www.w3.org/2000/svg">
<path d="M39.875 7.5H30.5C30.5 3.36328 27.1367 0 23 0C18.8633 0 15.5 3.36328 15.5 7.5H6.125C3.01953 7.5 0.5 10.0195 0.5 13.125V54.375C0.5 57.4805 3.01953 60 6.125 60H39.875C42.9805 60 45.5 57.4805 45.5 54.375V13.125C45.5 10.0195 42.9805 7.5 39.875 7.5ZM11.75 49.6875C10.1914 49.6875 8.9375 48.4336 8.9375 46.875C8.9375 45.3164 10.1914 44.0625 11.75 44.0625C13.3086 44.0625 14.5625 45.3164 14.5625 46.875C14.5625 48.4336 13.3086 49.6875 11.75 49.6875ZM11.75 38.4375C10.1914 38.4375 8.9375 37.1836 8.9375 35.625C8.9375 34.0664 10.1914 32.8125 11.75 32.8125C13.3086 32.8125 14.5625 34.0664 14.5625 35.625C14.5625 37.1836 13.3086 38.4375 11.75 38.4375ZM11.75 27.1875C10.1914 27.1875 8.9375 25.9336 8.9375 24.375C8.9375 22.8164 10.1914 21.5625 11.75 21.5625C13.3086 21.5625 14.5625 22.8164 14.5625 24.375C14.5625 25.9336 13.3086 27.1875 11.75 27.1875ZM23 4.6875C24.5586 4.6875 25.8125 5.94141 25.8125 7.5C25.8125 9.05859 24.5586 10.3125 23 10.3125C21.4414 10.3125 20.1875 9.05859 20.1875 7.5C20.1875 5.94141 21.4414 4.6875 23 4.6875ZM38 47.8125C38 48.3281 37.5781 48.75 37.0625 48.75H20.1875C19.6719 48.75 19.25 48.3281 19.25 47.8125V45.9375C19.25 45.4219 19.6719 45 20.1875 45H37.0625C37.5781 45 38 45.4219 38 45.9375V47.8125ZM38 36.5625C38 37.0781 37.5781 37.5 37.0625 37.5H20.1875C19.6719 37.5 19.25 37.0781 19.25 36.5625V34.6875C19.25 34.1719 19.6719 33.75 20.1875 33.75H37.0625C37.5781 33.75 38 34.1719 38 34.6875V36.5625ZM38 25.3125C38 25.8281 37.5781 26.25 37.0625 26.25H20.1875C19.6719 26.25 19.25 25.8281 19.25 25.3125V23.4375C19.25 22.9219 19.6719 22.5 20.1875 22.5H37.0625C37.5781 22.5 38 22.9219 38 23.4375V25.3125Z" fill="#4A8CBF"/>
</svg>
