<svg width="50" height="50" viewBox="0 0 50 50" fill="none" xmlns="http://www.w3.org/2000/svg">
<g clip-path="url(#clip0_115_469)">
<path d="M49.4373 40.9734C51.0395 43.7507 49.0283 47.2223 45.8282 47.2223H4.17138C0.965042 47.2223 -1.03687 43.7453 0.562264 40.9734L21.3909 4.85986C22.9939 2.0813 27.009 2.08634 28.6091 4.85986L49.4373 40.9734ZM25 33.507C22.7947 33.507 21.007 35.2948 21.007 37.5001C21.007 39.7053 22.7947 41.4931 25 41.4931C27.2053 41.4931 28.9931 39.7053 28.9931 37.5001C28.9931 35.2948 27.2053 33.507 25 33.507ZM21.209 19.154L21.8529 30.9596C21.883 31.512 22.3398 31.9445 22.893 31.9445H27.1071C27.6603 31.9445 28.117 31.512 28.1472 30.9596L28.7911 19.154C28.8236 18.5573 28.3485 18.0556 27.751 18.0556H22.249C21.6514 18.0556 21.1764 18.5573 21.209 19.154Z" fill="white"/>
</g>
<defs>
<clipPath id="clip0_115_469">
<rect width="50" height="50" fill="white"/>
</clipPath>
</defs>
</svg>
