<svg width="46" height="60" viewBox="0 0 46 60" fill="none" xmlns="http://www.w3.org/2000/svg">
<path d="M42.6875 0H3.3125C1.75918 0 0.5 1.25918 0.5 2.8125V4.6875C0.5 6.24082 1.75918 7.5 3.3125 7.5C3.3125 18.16 9.29094 27.1563 17.4737 30C9.29094 32.8437 3.3125 41.84 3.3125 52.5C1.75918 52.5 0.5 53.7592 0.5 55.3125V57.1875C0.5 58.7408 1.75918 60 3.3125 60H42.6875C44.2408 60 45.5 58.7408 45.5 57.1875V55.3125C45.5 53.7592 44.2408 52.5 42.6875 52.5C42.6875 41.84 36.7091 32.8437 28.5263 30C36.7091 27.1563 42.6875 18.16 42.6875 7.5C44.2408 7.5 45.5 6.24082 45.5 4.6875V2.8125C45.5 1.25918 44.2408 0 42.6875 0ZM33.8893 45H12.1109C14.11 39.516 18.2159 35.625 23 35.625C27.7837 35.625 31.8901 39.5152 33.8893 45ZM33.8915 15H12.1107C11.2798 12.7205 10.8125 10.1658 10.8125 7.5H35.1875C35.1875 10.1725 34.7203 12.725 33.8915 15Z" fill="#6BB06E"/>
</svg>
