<svg width="50" height="50" viewBox="0 0 50 50" fill="none" xmlns="http://www.w3.org/2000/svg">
<path d="M13.6338 3.46674C13.5249 3.35749 13.3955 3.27081 13.2531 3.21166C13.1106 3.15252 12.9579 3.12207 12.8037 3.12207C12.6495 3.12207 12.4967 3.15252 12.3543 3.21166C12.2118 3.27081 12.0825 3.35749 11.9736 3.46674L5.75486 9.64936L3.53806 7.48921C3.42919 7.37996 3.29983 7.29327 3.15738 7.23412C3.01494 7.17498 2.86222 7.14453 2.70799 7.14453C2.55375 7.14453 2.40103 7.17498 2.25859 7.23412C2.11615 7.29327 1.98678 7.37996 1.87791 7.48921L0.344705 9.02436C0.235455 9.13323 0.148771 9.2626 0.0896239 9.40504C0.030477 9.54749 3.05176e-05 9.7002 3.05176e-05 9.85444C3.05176e-05 10.0087 0.030477 10.1614 0.0896239 10.3038C0.148771 10.4463 0.235455 10.5756 0.344705 10.6845L4.99217 15.3134C5.22414 15.5339 5.53197 15.6569 5.85203 15.6569C6.17209 15.6569 6.47992 15.5339 6.71189 15.3134L8.23435 13.788L15.2851 6.73823C15.5048 6.51837 15.6289 6.22076 15.6306 5.90996C15.6322 5.59916 15.5113 5.30024 15.2939 5.07807L13.6338 3.46674ZM13.6338 19.0126C13.5249 18.9034 13.3955 18.8167 13.2531 18.7576C13.1106 18.6984 12.9579 18.668 12.8037 18.668C12.6495 18.668 12.4967 18.6984 12.3543 18.7576C12.2118 18.8167 12.0825 18.9034 11.9736 19.0126L5.75486 25.2353L3.53806 23.0771C3.42919 22.9678 3.29983 22.8812 3.15738 22.822C3.01494 22.7629 2.86222 22.7324 2.70799 22.7324C2.55375 22.7324 2.40103 22.7629 2.25859 22.822C2.11615 22.8812 1.98678 22.9678 1.87791 23.0771L0.344705 24.6093C0.235455 24.7182 0.148771 24.8476 0.0896239 24.99C0.030477 25.1324 3.05176e-05 25.2852 3.05176e-05 25.4394C3.05176e-05 25.5936 0.030477 25.7464 0.0896239 25.8888C0.148771 26.0312 0.235455 26.1606 0.344705 26.2695L4.98045 30.9081C5.21226 31.1286 5.51992 31.2515 5.83982 31.2515C6.15972 31.2515 6.46738 31.1286 6.6992 30.9081L8.2324 29.3759L15.2832 22.3232C15.502 22.1049 15.6257 21.8089 15.6274 21.4998C15.629 21.1907 15.5085 20.8934 15.292 20.6728L13.6338 19.0126ZM6.24998 35.9374C3.66306 35.9374 1.50486 38.0371 1.50486 40.6249C1.50486 43.2128 3.66502 45.3124 6.24998 45.3124C7.49318 45.3124 8.68546 44.8186 9.56454 43.9395C10.4436 43.0604 10.9375 41.8681 10.9375 40.6249C10.9375 39.3817 10.4436 38.1895 9.56454 37.3104C8.68546 36.4313 7.49318 35.9374 6.24998 35.9374ZM48.4375 37.4999H20.3125C19.8981 37.4999 19.5007 37.6646 19.2076 37.9576C18.9146 38.2506 18.75 38.648 18.75 39.0624V42.1874C18.75 42.6018 18.9146 42.9993 19.2076 43.2923C19.5007 43.5853 19.8981 43.7499 20.3125 43.7499H48.4375C48.8519 43.7499 49.2493 43.5853 49.5423 43.2923C49.8354 42.9993 50 42.6018 50 42.1874V39.0624C50 38.648 49.8354 38.2506 49.5423 37.9576C49.2493 37.6646 48.8519 37.4999 48.4375 37.4999ZM48.4375 6.24995H20.3125C19.8981 6.24995 19.5007 6.41457 19.2076 6.70759C18.9146 7.00062 18.75 7.39805 18.75 7.81245V10.9374C18.75 11.3518 18.9146 11.7493 19.2076 12.0423C19.5007 12.3353 19.8981 12.4999 20.3125 12.4999H48.4375C48.8519 12.4999 49.2493 12.3353 49.5423 12.0423C49.8354 11.7493 50 11.3518 50 10.9374V7.81245C50 7.39805 49.8354 7.00062 49.5423 6.70759C49.2493 6.41457 48.8519 6.24995 48.4375 6.24995ZM48.4375 21.8749H20.3125C19.8981 21.8749 19.5007 22.0396 19.2076 22.3326C18.9146 22.6256 18.75 23.023 18.75 23.4374V26.5624C18.75 26.9768 18.9146 27.3743 19.2076 27.6673C19.5007 27.9603 19.8981 28.1249 20.3125 28.1249H48.4375C48.8519 28.1249 49.2493 27.9603 49.5423 27.6673C49.8354 27.3743 50 26.9768 50 26.5624V23.4374C50 23.023 49.8354 22.6256 49.5423 22.3326C49.2493 22.0396 48.8519 21.8749 48.4375 21.8749Z" fill="white"/>
</svg>
