<svg width="50" height="50" viewBox="0 0 50 50" fill="none" xmlns="http://www.w3.org/2000/svg">
<path d="M45.7031 15.625H4.29688C3.64971 15.625 3.125 15.1003 3.125 14.4531V10.9375C3.125 8.34863 5.22363 6.25 7.8125 6.25H12.5V1.17188C12.5 0.524707 13.0247 0 13.6719 0H17.5781C18.2253 0 18.75 0.524707 18.75 1.17188V6.25H31.25V1.17188C31.25 0.524707 31.7747 0 32.4219 0H36.3281C36.9753 0 37.5 0.524707 37.5 1.17188V6.25H42.1875C44.7764 6.25 46.875 8.34863 46.875 10.9375V14.4531C46.875 15.1003 46.3503 15.625 45.7031 15.625ZM4.29688 18.75H45.7031C46.3503 18.75 46.875 19.2747 46.875 19.9219V45.3125C46.875 47.9014 44.7764 50 42.1875 50H7.8125C5.22363 50 3.125 47.9014 3.125 45.3125V19.9219C3.125 19.2747 3.64971 18.75 4.29688 18.75ZM36.8453 28.1198L34.0944 25.3466C33.6387 24.8871 32.8967 24.8841 32.4372 25.3399L22.082 35.6118L17.5918 31.0853C17.136 30.6258 16.3939 30.6228 15.9345 31.0786L13.1613 33.8296C12.7019 34.2854 12.6988 35.0273 13.1547 35.4868L21.2212 43.6186C21.677 44.078 22.4189 44.0811 22.8784 43.6252L36.8387 29.7771C37.2981 29.3213 37.3012 28.5793 36.8453 28.1198Z" fill="white"/>
</svg>
