<svg width="60" height="60" viewBox="0 0 60 60" fill="none" xmlns="http://www.w3.org/2000/svg">
<path d="M30 0.9375C13.9453 0.9375 0.9375 13.9453 0.9375 30C0.9375 46.0547 13.9453 59.0625 30 59.0625C46.0547 59.0625 59.0625 46.0547 59.0625 30C59.0625 13.9453 46.0547 0.9375 30 0.9375ZM36.6914 41.9648L26.3555 34.4531C25.9922 34.1836 25.7812 33.7617 25.7812 33.3164V13.5938C25.7812 12.8203 26.4141 12.1875 27.1875 12.1875H32.8125C33.5859 12.1875 34.2188 12.8203 34.2188 13.5938V29.7305L41.6602 35.1445C42.293 35.6016 42.4219 36.4805 41.9648 37.1133L38.6602 41.6602C38.2031 42.2812 37.3242 42.4219 36.6914 41.9648Z" fill="#6BB06E"/>
</svg>
