<svg width="60" height="60" viewBox="0 0 60 60" fill="none" xmlns="http://www.w3.org/2000/svg">
<path d="M59.0625 30C59.0625 46.0543 46.0496 59.0625 30 59.0625C13.9504 59.0625 0.9375 46.0543 0.9375 30C0.9375 13.955 13.9504 0.9375 30 0.9375C46.0496 0.9375 59.0625 13.955 59.0625 30ZM30 35.8594C27.0229 35.8594 24.6094 38.2729 24.6094 41.25C24.6094 44.2271 27.0229 46.6406 30 46.6406C32.9771 46.6406 35.3906 44.2271 35.3906 41.25C35.3906 38.2729 32.9771 35.8594 30 35.8594ZM24.8821 16.4829L25.7514 32.4204C25.792 33.1662 26.4087 33.75 27.1555 33.75H32.8445C33.5913 33.75 34.208 33.1662 34.2486 32.4204L35.1179 16.4829C35.1619 15.6773 34.5205 15 33.7138 15H26.2861C25.4794 15 24.8381 15.6773 24.8821 16.4829Z" fill="#B95555"/>
</svg>
