<svg width="16" height="16" viewBox="0 0 16 16" fill="none" xmlns="http://www.w3.org/2000/svg">
<rect x="1.75" y="1.75" width="12.5" height="12.5" rx="1.25" stroke="#57626A" stroke-width="1.5"/>
<path d="M1.75 3.0013C1.75 2.31094 2.30965 1.7513 3 1.7513H5.25V14.2499H3C2.30964 14.2499 1.75 13.6902 1.75 12.9999V3.0013Z" stroke="#57626A" stroke-width="1.5"/>
<path d="M8 5.18181C8 4.57932 8.48842 4.0909 9.09091 4.0909H10.9091C11.5116 4.0909 12 4.57932 12 5.18181C12 5.78431 11.5116 6.27272 10.9091 6.27272H9.09091C8.48842 6.27272 8 5.78431 8 5.18181Z" fill="#57626A"/>
<path d="M8 9.54545C8 8.94295 8.48842 8.45454 9.09091 8.45454H10.9091C11.5116 8.45454 12 8.94295 12 9.54545C12 10.1479 11.5116 10.6364 10.9091 10.6364H9.09091C8.48842 10.6364 8 10.1479 8 9.54545Z" fill="#57626A"/>
</svg>
