<svg width="16" height="16" viewBox="0 0 16 16" fill="none" xmlns="http://www.w3.org/2000/svg">
<rect x="1.5" y="2.66667" width="13" height="11.8333" rx="1.5" stroke="#57626A"/>
<path d="M5.0835 1.58333C5.0835 1.26117 5.34466 1 5.66683 1C5.989 1 6.25016 1.26117 6.25016 1.58333V3.91667C6.25016 4.23883 5.989 4.5 5.66683 4.5C5.34466 4.5 5.0835 4.23883 5.0835 3.91667V1.58333Z" fill="white"/>
<path d="M10.9165 2.16667H12.0832V3.33334H10.9165V2.16667Z" fill="white"/>
<rect x="4.5" y="1" width="1.16667" height="3.5" rx="0.583333" fill="#57626A"/>
<rect x="10.3335" y="1" width="1.16667" height="3.5" rx="0.583333" fill="#57626A"/>
<circle cx="5.375" cy="7.70833" r="0.875" fill="#57626A"/>
<path d="M6.25 10.625C6.25 11.1082 5.85825 11.5 5.375 11.5C4.89175 11.5 4.5 11.1082 4.5 10.625C4.5 10.1418 4.89175 9.75 5.375 9.75C5.85825 9.75 6.25 10.1418 6.25 10.625Z" fill="#57626A"/>
<path d="M9.1665 10.625C9.1665 11.1082 8.77475 11.5 8.2915 11.5C7.80825 11.5 7.4165 11.1082 7.4165 10.625C7.4165 10.1418 7.80825 9.75 8.2915 9.75C8.77475 9.75 9.1665 10.1418 9.1665 10.625Z" fill="#57626A"/>
<path d="M9.1665 7.70833C9.1665 8.19158 8.77475 8.58333 8.2915 8.58333C7.80825 8.58333 7.4165 8.19158 7.4165 7.70833C7.4165 7.22508 7.80825 6.83333 8.2915 6.83333C8.77475 6.83333 9.1665 7.22508 9.1665 7.70833Z" fill="#57626A"/>
<path d="M12.0835 7.70833C12.0835 8.19158 11.6917 8.58333 11.2085 8.58333C10.7252 8.58333 10.3335 8.19158 10.3335 7.70833C10.3335 7.22508 10.7252 6.83333 11.2085 6.83333C11.6917 6.83333 12.0835 7.22508 12.0835 7.70833Z" fill="#57626A"/>
</svg>
