<svg width="21" height="22" viewBox="0 0 21 22" fill="none" xmlns="http://www.w3.org/2000/svg">
<g clip-path="url(#clip0_2_1186)">
<path d="M15.1607 18.826H6.04463C4.95939 18.826 3.98267 17.9251 3.98267 16.6865V10.7184C3.98267 9.4797 4.95939 8.57886 6.04463 8.57886H15.1607C16.3545 8.57886 17.2227 9.59231 17.2227 10.7184V13.4209C17.2227 13.7587 17.0056 13.9839 16.68 13.9839C16.3545 13.9839 16.1374 13.7587 16.1374 13.4209V10.7184C16.1374 10.1553 15.7033 9.70491 15.1607 9.70491H6.04463C5.50201 9.59231 5.06791 10.0427 5.06791 10.7184V16.6865C5.06791 17.2495 5.50201 17.6999 6.04463 17.6999H15.1607C15.7033 17.6999 16.1374 17.2495 16.1374 16.6865V15.8982C16.1374 15.5604 16.3545 15.3352 16.68 15.3352C17.0056 15.3352 17.2227 15.5604 17.2227 15.8982V16.6865C17.2227 17.9251 16.2459 18.826 15.1607 18.826Z" fill="black"/>
<path d="M13.6414 9.59235H7.56399C7.23841 9.59235 7.02136 9.36713 7.02136 9.02932V6.88981C7.02136 4.86291 8.64923 3.17383 10.6027 3.17383C12.5561 3.17383 14.184 4.86291 14.184 6.88981V9.02932C14.184 9.36713 13.9669 9.59235 13.6414 9.59235ZM8.10661 8.46629H13.0987V6.88981C13.0987 5.42594 12.0135 4.29988 10.6027 4.29988C9.19185 4.29988 8.10661 5.42594 8.10661 6.88981V8.46629Z" fill="black"/>
<path d="M7.34696 14.7721C7.94633 14.7721 8.43221 14.268 8.43221 13.6461C8.43221 13.0242 7.94633 12.52 7.34696 12.52C6.7476 12.52 6.26172 13.0242 6.26172 13.6461C6.26172 14.268 6.7476 14.7721 7.34696 14.7721Z" fill="black"/>
<path d="M10.6027 14.7721C11.2021 14.7721 11.6879 14.268 11.6879 13.6461C11.6879 13.0242 11.2021 12.52 10.6027 12.52C10.0033 12.52 9.51746 13.0242 9.51746 13.6461C9.51746 14.268 10.0033 14.7721 10.6027 14.7721Z" fill="black"/>
<path d="M13.8584 14.7721C14.4578 14.7721 14.9437 14.268 14.9437 13.6461C14.9437 13.0242 14.4578 12.52 13.8584 12.52C13.2591 12.52 12.7732 13.0242 12.7732 13.6461C12.7732 14.268 13.2591 14.7721 13.8584 14.7721Z" fill="black"/>
</g>
<defs>
<clipPath id="clip0_2_1186">
<rect width="13.24" height="15.6522" fill="white" transform="translate(3.98267 3.17383)"/>
</clipPath>
</defs>
</svg>
